{
	"asset":{
		"copyright":"ngooiwong",
		"generator":"Khronos glTF Blender I/O v4.4.55",
		"version":"2.0"
	},
	"scene":0,
	"scenes":[
		{
			"name":"Scene",
			"nodes":[
				0,
				1
			]
		}
	],
	"nodes":[
		{
			"mesh":0,
			"name":"StreetLightBody_low",
			"translation":[
				-1.6871922016143799,
				5.139411926269531,
				44.927886962890625
			]
		},
		{
			"mesh":1,
			"name":"StreetLightHead_low",
			"translation":[
				-0.04621949791908264,
				9.439800262451172,
				44.927886962890625
			]
		}
	],
	"materials":[
		{
			"doubleSided":true,
			"name":"streetlightbody1",
			"normalTexture":{
				"index":0
			},
			"pbrMetallicRoughness":{
				"baseColorTexture":{
					"index":1
				},
				"metallicRoughnessTexture":{
					"index":2
				}
			}
		},
		{
			"doubleSided":true,
			"name":"streetlightbody2",
			"normalTexture":{
				"index":3
			},
			"pbrMetallicRoughness":{
				"baseColorTexture":{
					"index":4
				},
				"metallicRoughnessTexture":{
					"index":5
				}
			}
		},
		{
			"doubleSided":true,
			"name":"streetlightbody3",
			"normalTexture":{
				"index":6
			},
			"pbrMetallicRoughness":{
				"baseColorTexture":{
					"index":7
				},
				"metallicRoughnessTexture":{
					"index":8
				}
			}
		},
		{
			"doubleSided":true,
			"name":"streetlighthead1",
			"normalTexture":{
				"index":9
			},
			"pbrMetallicRoughness":{
				"baseColorTexture":{
					"index":10
				},
				"metallicRoughnessTexture":{
					"index":11
				}
			}
		},
		{
			"doubleSided":true,
			"name":"streetlighthead2",
			"normalTexture":{
				"index":12
			},
			"pbrMetallicRoughness":{
				"baseColorTexture":{
					"index":13
				},
				"metallicRoughnessTexture":{
					"index":14
				}
			}
		}
	],
	"meshes":[
		{
			"name":"Cylinder.070",
			"primitives":[
				{
					"attributes":{
						"POSITION":0,
						"NORMAL":1,
						"TEXCOORD_0":2
					},
					"indices":3,
					"material":0
				},
				{
					"attributes":{
						"POSITION":4,
						"NORMAL":5,
						"TEXCOORD_0":6
					},
					"indices":7,
					"material":1
				},
				{
					"attributes":{
						"POSITION":8,
						"NORMAL":9,
						"TEXCOORD_0":10
					},
					"indices":11,
					"material":2
				}
			]
		},
		{
			"name":"Cube.090",
			"primitives":[
				{
					"attributes":{
						"POSITION":12,
						"NORMAL":13,
						"TEXCOORD_0":14
					},
					"indices":15,
					"material":3
				},
				{
					"attributes":{
						"POSITION":16,
						"NORMAL":17,
						"TEXCOORD_0":18
					},
					"indices":19,
					"material":4
				}
			]
		}
	],
	"textures":[
		{
			"sampler":0,
			"source":0
		},
		{
			"sampler":0,
			"source":1
		},
		{
			"sampler":0,
			"source":2
		},
		{
			"sampler":0,
			"source":3
		},
		{
			"sampler":0,
			"source":4
		},
		{
			"sampler":0,
			"source":5
		},
		{
			"sampler":0,
			"source":6
		},
		{
			"sampler":0,
			"source":7
		},
		{
			"sampler":0,
			"source":8
		},
		{
			"sampler":0,
			"source":9
		},
		{
			"sampler":0,
			"source":10
		},
		{
			"sampler":0,
			"source":11
		},
		{
			"sampler":0,
			"source":12
		},
		{
			"sampler":0,
			"source":13
		},
		{
			"sampler":0,
			"source":14
		}
	],
	"images":[
		{
			"mimeType":"image/png",
			"name":"streetlightbody1_Normal",
			"uri":"streetlightbody1_Normal.png"
		},
		{
			"mimeType":"image/png",
			"name":"streetlightbody1_BaseColor",
			"uri":"streetlightbody1_BaseColor.png"
		},
		{
			"mimeType":"image/png",
			"name":"streetlightbody1_Metallic-streetlightbody1_Roughness",
			"uri":"streetlightbody1_Metallic-streetlightbody1_Roughness.png"
		},
		{
			"mimeType":"image/png",
			"name":"streetlightbody2_Normal",
			"uri":"streetlightbody2_Normal.png"
		},
		{
			"mimeType":"image/png",
			"name":"streetlightbody2_BaseColor",
			"uri":"streetlightbody2_BaseColor.png"
		},
		{
			"mimeType":"image/png",
			"name":"streetlightbody2_Metallic-streetlightbody2_Roughness",
			"uri":"streetlightbody2_Metallic-streetlightbody2_Roughness.png"
		},
		{
			"mimeType":"image/png",
			"name":"streetlightbody3_Normal",
			"uri":"streetlightbody3_Normal.png"
		},
		{
			"mimeType":"image/png",
			"name":"streetlightbody3_BaseColor",
			"uri":"streetlightbody3_BaseColor.png"
		},
		{
			"mimeType":"image/png",
			"name":"streetlightbody3_Metallic-streetlightbody3_Roughness",
			"uri":"streetlightbody3_Metallic-streetlightbody3_Roughness.png"
		},
		{
			"mimeType":"image/png",
			"name":"streetlighthead1_Normal",
			"uri":"streetlighthead1_Normal.png"
		},
		{
			"mimeType":"image/png",
			"name":"streetlighthead1_BaseColor",
			"uri":"streetlighthead1_BaseColor.png"
		},
		{
			"mimeType":"image/png",
			"name":"streetlighthead1_Metallic-streetlighthead1_Roughness",
			"uri":"streetlighthead1_Metallic-streetlighthead1_Roughness.png"
		},
		{
			"mimeType":"image/png",
			"name":"streetlighthead2_Normal",
			"uri":"streetlighthead2_Normal.png"
		},
		{
			"mimeType":"image/png",
			"name":"streetlighthead2_BaseColor",
			"uri":"streetlighthead2_BaseColor.png"
		},
		{
			"mimeType":"image/png",
			"name":"streetlighthead2_Metallic-streetlighthead2_Roughness",
			"uri":"streetlighthead2_Metallic-streetlighthead2_Roughness.png"
		}
	],
	"accessors":[
		{
			"bufferView":0,
			"componentType":5126,
			"count":322,
			"max":[
				1.0475701093673706,
				4.366483688354492,
				0.29795074462890625
			],
			"min":[
				-1.0475702285766602,
				-4.366483688354492,
				-0.29795074462890625
			],
			"type":"VEC3"
		},
		{
			"bufferView":1,
			"componentType":5126,
			"count":322,
			"type":"VEC3"
		},
		{
			"bufferView":2,
			"componentType":5126,
			"count":322,
			"type":"VEC2"
		},
		{
			"bufferView":3,
			"componentType":5123,
			"count":1152,
			"type":"SCALAR"
		},
		{
			"bufferView":4,
			"componentType":5126,
			"count":130,
			"max":[
				-0.5793247222900391,
				0.9908938407897949,
				0.15271759033203125
			],
			"min":[
				-0.8966729640960693,
				-4.160198211669922,
				-0.15271759033203125
			],
			"type":"VEC3"
		},
		{
			"bufferView":5,
			"componentType":5126,
			"count":130,
			"type":"VEC3"
		},
		{
			"bufferView":6,
			"componentType":5126,
			"count":130,
			"type":"VEC2"
		},
		{
			"bufferView":7,
			"componentType":5123,
			"count":384,
			"type":"SCALAR"
		},
		{
			"bufferView":8,
			"componentType":5126,
			"count":297,
			"max":[
				1.0475701093673706,
				4.366483688354492,
				0.068084716796875
			],
			"min":[
				-0.8119802474975586,
				0.9908938407897949,
				-0.068084716796875
			],
			"type":"VEC3"
		},
		{
			"bufferView":9,
			"componentType":5126,
			"count":297,
			"type":"VEC3"
		},
		{
			"bufferView":10,
			"componentType":5126,
			"count":297,
			"type":"VEC2"
		},
		{
			"bufferView":11,
			"componentType":5123,
			"count":1344,
			"type":"SCALAR"
		},
		{
			"bufferView":12,
			"componentType":5126,
			"count":6993,
			"max":[
				0.6232964992523193,
				0.2597236633300781,
				0.2870368957519531
			],
			"min":[
				-0.6232964992523193,
				-0.13547039031982422,
				-0.2870330810546875
			],
			"type":"VEC3"
		},
		{
			"bufferView":13,
			"componentType":5126,
			"count":6993,
			"type":"VEC3"
		},
		{
			"bufferView":14,
			"componentType":5126,
			"count":6993,
			"type":"VEC2"
		},
		{
			"bufferView":15,
			"componentType":5123,
			"count":40416,
			"type":"SCALAR"
		},
		{
			"bufferView":16,
			"componentType":5126,
			"count":1825,
			"max":[
				0.5272166728973389,
				-0.02030658721923828,
				0.2144622802734375
			],
			"min":[
				-0.0654340535402298,
				-0.25972461700439453,
				-0.21828842163085938
			],
			"type":"VEC3"
		},
		{
			"bufferView":17,
			"componentType":5126,
			"count":1825,
			"type":"VEC3"
		},
		{
			"bufferView":18,
			"componentType":5126,
			"count":1825,
			"type":"VEC2"
		},
		{
			"bufferView":19,
			"componentType":5123,
			"count":10752,
			"type":"SCALAR"
		}
	],
	"bufferViews":[
		{
			"buffer":0,
			"byteLength":3864,
			"byteOffset":0,
			"target":34962
		},
		{
			"buffer":0,
			"byteLength":3864,
			"byteOffset":3864,
			"target":34962
		},
		{
			"buffer":0,
			"byteLength":2576,
			"byteOffset":7728,
			"target":34962
		},
		{
			"buffer":0,
			"byteLength":2304,
			"byteOffset":10304,
			"target":34963
		},
		{
			"buffer":0,
			"byteLength":1560,
			"byteOffset":12608,
			"target":34962
		},
		{
			"buffer":0,
			"byteLength":1560,
			"byteOffset":14168,
			"target":34962
		},
		{
			"buffer":0,
			"byteLength":1040,
			"byteOffset":15728,
			"target":34962
		},
		{
			"buffer":0,
			"byteLength":768,
			"byteOffset":16768,
			"target":34963
		},
		{
			"buffer":0,
			"byteLength":3564,
			"byteOffset":17536,
			"target":34962
		},
		{
			"buffer":0,
			"byteLength":3564,
			"byteOffset":21100,
			"target":34962
		},
		{
			"buffer":0,
			"byteLength":2376,
			"byteOffset":24664,
			"target":34962
		},
		{
			"buffer":0,
			"byteLength":2688,
			"byteOffset":27040,
			"target":34963
		},
		{
			"buffer":0,
			"byteLength":83916,
			"byteOffset":29728,
			"target":34962
		},
		{
			"buffer":0,
			"byteLength":83916,
			"byteOffset":113644,
			"target":34962
		},
		{
			"buffer":0,
			"byteLength":55944,
			"byteOffset":197560,
			"target":34962
		},
		{
			"buffer":0,
			"byteLength":80832,
			"byteOffset":253504,
			"target":34963
		},
		{
			"buffer":0,
			"byteLength":21900,
			"byteOffset":334336,
			"target":34962
		},
		{
			"buffer":0,
			"byteLength":21900,
			"byteOffset":356236,
			"target":34962
		},
		{
			"buffer":0,
			"byteLength":14600,
			"byteOffset":378136,
			"target":34962
		},
		{
			"buffer":0,
			"byteLength":21504,
			"byteOffset":392736,
			"target":34963
		}
	],
	"samplers":[
		{
			"magFilter":9729,
			"minFilter":9987
		}
	],
	"buffers":[
		{
			"byteLength":414240,
			"uri":"StreetLight.bin"
		}
	]
}
